<?xml version="1.0" standalone="no"?>
<!DOCTYPE svg PUBLIC "-//W3C//DTD SVG 20010904//EN"
 "http://www.w3.org/TR/2001/REC-SVG-20010904/DTD/svg10.dtd">
<svg version="1.0" xmlns="http://www.w3.org/2000/svg"
 width="570.000000pt" height="700.000000pt" viewBox="0 0 570.000000 700.000000"
 preserveAspectRatio="xMidYMid meet">

<g transform="translate(0.000000,700.000000) scale(0.100000,-0.100000)"
fill="#000000" stroke="none">
<path d="M0 3500 l0 -3500 2850 0 2850 0 0 3500 0 3500 -2850 0 -2850 0 0
-3500z m4019 2101 c20 -5 66 -17 102 -26 61 -15 90 -33 129 -81 9 -11 53 -46
98 -79 45 -33 82 -65 82 -73 0 -7 9 -26 21 -41 25 -35 36 -109 20 -140 -7 -12
-16 -57 -21 -99 -10 -92 -37 -149 -101 -215 -24 -24 -67 -71 -96 -104 -90
-103 -306 -193 -462 -193 -25 0 -97 9 -159 20 -133 22 -254 75 -318 138 -81
78 -103 257 -50 415 28 81 34 92 90 141 34 29 75 61 91 72 17 10 53 37 80 60
28 22 71 49 97 59 45 17 47 19 45 54 -2 34 0 36 38 46 22 5 47 14 55 20 41 26
196 42 259 26z"/>
</g>
</svg>
